<svg width="12" height="12" viewBox="0 0 12 12" fill="none" xmlns="http://www.w3.org/2000/svg">
<path id="Vector" d="M8.71854 0C9.58304 0.483121 10.3238 1.16007 10.8826 1.97768C11.4414 2.79529 11.8031 3.73131 11.9392 4.71225C12.0753 5.69318 11.9822 6.69231 11.6671 7.63119C11.3521 8.57008 10.8237 9.42315 10.1234 10.1234C9.42315 10.8237 8.57008 11.3521 7.63119 11.6671C6.69231 11.9822 5.69318 12.0753 4.71225 11.9392C3.73131 11.8031 2.79529 11.4414 1.97768 10.8826C1.16007 10.3238 0.483121 9.58304 0 8.71854C2.4395 10.0842 5.58341 9.73311 7.65789 7.65862C9.73311 5.58341 10.085 2.44023 8.71854 0Z" fill="black"/>
</svg>
