<svg width="117" height="107" viewBox="0 0 117 107" fill="none" xmlns="http://www.w3.org/2000/svg">
<rect width="117" height="107" fill="#F5F5F5"/>
<g id="Home" clip-path="url(#clip0_0_1)">
<rect width="1512" height="4785" transform="translate(-1118 -2066)" fill="white"/>
<g id="Frame 1" clip-path="url(#clip1_0_1)">
<g id="Group 62">
<g id="Rectangle 18" filter="url(#filter0_d_0_1)">
<rect x="-65" y="-28" width="247" height="328" rx="25" fill="white"/>
</g>
<g id="Group 35" filter="url(#filter1_d_0_1)">
<path id="Vector" d="M59.745 24.6142C55.6713 16.2781 47.3963 11.1 38.15 11.1C24.8892 11.1 14.1 21.8892 14.1 35.15C14.1 43.2567 18.1533 50.7658 24.9428 55.2391C25.2449 55.4382 25.5986 55.5443 25.9603 55.5444L26.0362 55.5425L26.4265 55.5203C26.5579 55.5111 26.6929 55.5 26.828 55.5H43.7C44.1906 55.5 44.6612 55.3051 45.0081 54.9581C45.3551 54.6112 45.55 54.1406 45.55 53.65V46.028C45.55 37.6512 50.8447 30.068 58.7238 27.1617C58.9666 27.0723 59.1879 26.933 59.3734 26.7527C59.5589 26.5724 59.7045 26.3551 59.8008 26.115C59.8971 25.8749 59.9418 25.6172 59.9322 25.3587C59.9226 25.1002 59.8589 24.8466 59.745 24.6142ZM38.15 7.4C37.6593 7.4 37.1888 7.20509 36.8418 6.85815C36.4949 6.5112 36.3 6.04065 36.3 5.55V1.85C36.3 1.35935 36.4949 0.888795 36.8418 0.541853C37.1888 0.19491 37.6593 0 38.15 0C38.6406 0 39.1112 0.19491 39.4581 0.541853C39.8051 0.888795 40 1.35935 40 1.85V5.55C40 6.04065 39.8051 6.5112 39.4581 6.85815C39.1112 7.20509 38.6406 7.4 38.15 7.4ZM59.079 16.0709C58.7128 16.0718 58.3546 15.9637 58.0499 15.7606C57.7451 15.5575 57.5076 15.2684 57.3675 14.93C57.2273 14.5916 57.1909 14.2193 57.2627 13.8602C57.3346 13.501 57.5115 13.1714 57.7711 12.913L60.3888 10.2952C60.5606 10.1235 60.7645 9.98724 60.9889 9.89428C61.2133 9.80132 61.4539 9.75348 61.6968 9.75348C61.9397 9.75348 62.1802 9.80132 62.4046 9.89428C62.6291 9.98724 62.833 10.1235 63.0047 10.2952C63.1765 10.467 63.3127 10.6709 63.4057 10.8953C63.4987 11.1198 63.5465 11.3603 63.5465 11.6032C63.5465 11.8461 63.4987 12.0866 63.4057 12.3111C63.3127 12.5355 63.1765 12.7394 63.0047 12.9111L60.387 15.5289C60.2154 15.7009 60.0116 15.8374 59.7871 15.9304C59.5626 16.0234 59.322 16.0712 59.079 16.0709ZM8.55 37H4.85C4.35935 37 3.88879 36.8051 3.54185 36.4581C3.19491 36.1112 3 35.6406 3 35.15C3 34.6593 3.19491 34.1888 3.54185 33.8418C3.88879 33.4949 4.35935 33.3 4.85 33.3H8.55C9.04065 33.3 9.5112 33.4949 9.85815 33.8418C10.2051 34.1888 10.4 34.6593 10.4 35.15C10.4 35.6406 10.2051 36.1112 9.85815 36.4581C9.5112 36.8051 9.04065 37 8.55 37ZM17.2209 16.0709C16.978 16.0712 16.7373 16.0234 16.5129 15.9304C16.2884 15.8374 16.0846 15.7009 15.913 15.5289L13.2952 12.9111C13.1235 12.7394 12.9872 12.5355 12.8943 12.3111C12.8013 12.0866 12.7535 11.8461 12.7535 11.6032C12.7535 11.3603 12.8013 11.1198 12.8943 10.8953C12.9872 10.6709 13.1235 10.467 13.2952 10.2952C13.467 10.1235 13.6709 9.98724 13.8953 9.89428C14.1198 9.80132 14.3603 9.75348 14.6032 9.75348C14.8461 9.75348 15.0866 9.80132 15.3111 9.89428C15.5355 9.98724 15.7394 10.1235 15.9111 10.2952L18.5289 12.913C18.7885 13.1714 18.9654 13.501 19.0373 13.8602C19.1091 14.2193 19.0727 14.5916 18.9325 14.93C18.7924 15.2684 18.5549 15.5575 18.2501 15.7606C17.9454 15.9637 17.5872 16.0718 17.2209 16.0709Z" fill="#FBB03B"/>
<path id="Vector_2" d="M90.172 49.95H89.95V46.028C89.95 32.8893 79.2607 22.2 66.122 22.2H65.678C52.5393 22.2 41.85 32.8893 41.85 46.028V51.8H26.828C13.6893 51.8 3 62.4893 3 75.628V76.072C3 89.2107 13.6893 99.9 26.828 99.9H90.172C103.311 99.9 114 89.2107 114 76.072V73.778C114 60.6393 103.311 49.95 90.172 49.95Z" fill="#E6E6E6"/>
<path id="Vector_3" d="M110.295 61.0703C110.226 76.7805 97.4316 89.54 81.7066 89.54H7.19043C11.4898 95.7893 18.6863 99.8999 26.8282 99.8999H90.1722C103.311 99.8999 114 89.2106 114 76.072V73.778C114 69.1049 112.627 64.7537 110.295 61.0703Z" fill="#CFCFCF"/>
</g>
</g>
</g>
</g>
<defs>
<filter id="filter0_d_0_1" x="-71" y="-32" width="259" height="340" filterUnits="userSpaceOnUse" color-interpolation-filters="sRGB">
<feFlood flood-opacity="0" result="BackgroundImageFix"/>
<feColorMatrix in="SourceAlpha" type="matrix" values="0 0 0 0 0 0 0 0 0 0 0 0 0 0 0 0 0 0 127 0" result="hardAlpha"/>
<feOffset dy="2"/>
<feGaussianBlur stdDeviation="3"/>
<feComposite in2="hardAlpha" operator="out"/>
<feColorMatrix type="matrix" values="0 0 0 0 0 0 0 0 0 0 0 0 0 0 0 0 0 0 0.19 0"/>
<feBlend mode="normal" in2="BackgroundImageFix" result="effect1_dropShadow_0_1"/>
<feBlend mode="normal" in="SourceGraphic" in2="effect1_dropShadow_0_1" result="shape"/>
</filter>
<filter id="filter1_d_0_1" x="0" y="0" width="117" height="106.9" filterUnits="userSpaceOnUse" color-interpolation-filters="sRGB">
<feFlood flood-opacity="0" result="BackgroundImageFix"/>
<feColorMatrix in="SourceAlpha" type="matrix" values="0 0 0 0 0 0 0 0 0 0 0 0 0 0 0 0 0 0 127 0" result="hardAlpha"/>
<feOffset dy="4"/>
<feGaussianBlur stdDeviation="1.5"/>
<feComposite in2="hardAlpha" operator="out"/>
<feColorMatrix type="matrix" values="0 0 0 0 0 0 0 0 0 0 0 0 0 0 0 0 0 0 0.25 0"/>
<feBlend mode="normal" in2="BackgroundImageFix" result="effect1_dropShadow_0_1"/>
<feBlend mode="normal" in="SourceGraphic" in2="effect1_dropShadow_0_1" result="shape"/>
</filter>
<clipPath id="clip0_0_1">
<rect width="1512" height="4785" fill="white" transform="translate(-1118 -2066)"/>
</clipPath>
<clipPath id="clip1_0_1">
<rect width="1117" height="386" fill="white" transform="translate(-933 -53)"/>
</clipPath>
</defs>
</svg>
