<svg width="89" height="114" viewBox="0 0 89 114" fill="none" xmlns="http://www.w3.org/2000/svg">
<rect width="89" height="114" fill="#F5F5F5"/>
<g id="Home" clip-path="url(#clip0_0_1)">
<rect width="1512" height="4785" transform="translate(-570 -2056)" fill="white"/>
<g id="Frame 1" clip-path="url(#clip1_0_1)">
<g id="Group 64">
<g id="Rectangle 16" filter="url(#filter0_d_0_1)">
<rect x="-80" y="-18" width="249" height="328" rx="25" fill="white"/>
</g>
<g id="Group 33">
<path id="Vector" d="M85.522 71.9302C85.4994 71.9302 85.4768 71.9298 85.4541 71.9289C85.2332 71.9202 85.0161 71.868 84.8153 71.7753C84.6145 71.6827 84.434 71.5514 84.2839 71.389C84.1339 71.2265 84.0173 71.0362 83.9408 70.8287C83.8643 70.6212 83.8295 70.4007 83.8382 70.1797L84.1051 63.4496C84.1227 63.0034 84.317 62.5824 84.645 62.2794C84.973 61.9764 85.408 61.816 85.8542 61.8337C86.3005 61.8514 86.7214 62.0456 87.0245 62.3737C87.3275 62.7017 87.4878 63.1367 87.4701 63.5829L87.2033 70.313C87.1861 70.7475 87.0014 71.1585 86.688 71.4599C86.3746 71.7614 85.9568 71.9299 85.522 71.9302ZM83.9208 107.82C83.8982 107.82 83.8756 107.82 83.8528 107.819C83.6319 107.81 83.4148 107.758 83.214 107.666C83.0132 107.573 82.8327 107.442 82.6826 107.279C82.5326 107.117 82.416 106.926 82.3396 106.719C82.2631 106.511 82.2283 106.291 82.237 106.07L82.504 99.3398C82.5217 98.8935 82.7159 98.4726 83.044 98.1696C83.3721 97.8666 83.8071 97.7063 84.2533 97.724C84.6995 97.7417 85.1204 97.9359 85.4235 98.264C85.7265 98.5921 85.8868 99.0271 85.8691 99.4733L85.6021 106.203C85.5849 106.638 85.4002 107.049 85.0868 107.35C84.7734 107.652 84.3556 107.82 83.9208 107.82ZM9.22466 72.3073C9.20207 72.3073 9.17945 72.3069 9.1568 72.306C8.93584 72.2973 8.71878 72.2451 8.51799 72.1524C8.31721 72.0598 8.13664 71.9285 7.98659 71.7661C7.83654 71.6037 7.71995 71.4133 7.64349 71.2058C7.56702 70.9983 7.53217 70.7778 7.54092 70.5568L7.80775 63.8267C7.82542 63.3805 8.01964 62.9595 8.34768 62.6565C8.67571 62.3535 9.11069 62.1932 9.55693 62.2108C10.0032 62.2285 10.4241 62.4227 10.7271 62.7508C11.0302 63.0788 11.1905 63.5138 11.1728 63.96L10.906 70.6901C10.8887 71.1246 10.7041 71.5356 10.3907 71.837C10.0773 72.1385 9.65948 72.307 9.22466 72.3073ZM24.8393 75.1734C24.8167 75.1734 24.7941 75.1729 24.7714 75.1721C24.5504 75.1633 24.3334 75.1111 24.1326 75.0185C23.9318 74.9258 23.7512 74.7946 23.6012 74.6321C23.4511 74.4697 23.3346 74.2793 23.2581 74.0718C23.1816 73.8643 23.1468 73.6438 23.1555 73.4229L23.4224 66.6928C23.44 66.2465 23.6342 65.8256 23.9623 65.5226C24.1247 65.3725 24.3151 65.2559 24.5226 65.1794C24.7301 65.103 24.9506 65.0681 25.1715 65.0769C25.3925 65.0856 25.6096 65.1378 25.8103 65.2305C26.0111 65.3231 26.1917 65.4544 26.3417 65.6168C26.4918 65.7792 26.6084 65.9696 26.6848 66.1771C26.7613 66.3846 26.7962 66.6051 26.7874 66.8261L26.5206 73.5562C26.5033 73.9907 26.3187 74.4016 26.0053 74.7031C25.6919 75.0045 25.2741 75.173 24.8393 75.1734ZM62.9941 73.5509C62.9715 73.5509 62.9489 73.5505 62.9262 73.5496C62.7052 73.5409 62.4882 73.4887 62.2874 73.396C62.0866 73.3034 61.906 73.1721 61.756 73.0097C61.6059 72.8473 61.4894 72.6569 61.4129 72.4494C61.3364 72.2419 61.3016 72.0214 61.3103 71.8004L61.5772 65.0703C61.5948 64.6241 61.789 64.2031 62.1171 63.9001C62.4451 63.5971 62.8801 63.4367 63.3263 63.4544C63.7726 63.4721 64.1935 63.6663 64.4965 63.9944C64.7996 64.3224 64.9599 64.7574 64.9422 65.2036L64.6754 71.9337C64.6581 72.3682 64.4735 72.7792 64.1601 73.0806C63.8467 73.3821 63.4289 73.5506 62.9941 73.5509ZM7.62346 105.953C7.60088 105.953 7.57826 105.952 7.55561 105.951C7.33465 105.943 7.11759 105.89 6.91681 105.798C6.71602 105.705 6.53545 105.574 6.3854 105.411C6.23535 105.249 6.11876 105.059 6.0423 104.851C5.96583 104.644 5.93097 104.423 5.93973 104.202L6.20656 97.472C6.22423 97.0257 6.41845 96.6048 6.74649 96.3018C7.07452 95.9987 7.50951 95.8384 7.95574 95.8561C8.40198 95.8738 8.82291 96.068 9.12595 96.396C9.42898 96.724 9.5893 97.159 9.57162 97.6053L9.30479 104.335C9.28755 104.77 9.10292 105.181 8.78953 105.482C8.47614 105.784 8.05829 105.952 7.62346 105.953ZM38.954 113.309C38.9314 113.309 38.9088 113.308 38.886 113.307C38.6651 113.299 38.448 113.247 38.2472 113.154C38.0464 113.061 37.8659 112.93 37.7158 112.767C37.5658 112.605 37.4492 112.415 37.3728 112.207C37.2963 112 37.2615 111.779 37.2702 111.558L37.5371 104.828C37.5548 104.382 37.749 103.961 38.077 103.658C38.4051 103.355 38.8401 103.195 39.2863 103.212C39.7325 103.23 40.1535 103.424 40.4565 103.752C40.7595 104.08 40.9198 104.515 40.9021 104.962L40.6353 111.692C40.618 112.126 40.4334 112.537 40.12 112.839C39.8066 113.14 39.3888 113.308 38.954 113.309ZM52.6493 104.328C52.6267 104.328 52.6041 104.328 52.5813 104.327C52.3603 104.318 52.1433 104.266 51.9425 104.173C51.7417 104.081 51.5612 103.949 51.4111 103.787C51.2611 103.625 51.1445 103.434 51.0681 103.227C50.9916 103.019 50.9568 102.799 50.9655 102.578L51.2323 95.8476C51.25 95.4014 51.4443 94.9805 51.7723 94.6774C52.1004 94.3744 52.5354 94.2141 52.9816 94.2318C53.4278 94.2495 53.8488 94.4437 54.1518 94.7718C54.4548 95.0998 54.6151 95.5348 54.5974 95.9811L54.3306 102.711C54.3133 103.146 54.1287 103.557 53.8153 103.858C53.5019 104.159 53.0841 104.328 52.6493 104.328ZM68.1284 109.441C68.1058 109.441 68.0832 109.441 68.0604 109.44C67.8395 109.431 67.6224 109.379 67.4216 109.286C67.2208 109.194 67.0403 109.062 66.8902 108.9C66.7402 108.737 66.6236 108.547 66.5472 108.34C66.4707 108.132 66.4359 107.912 66.4446 107.691L66.7115 100.961C66.7292 100.514 66.9234 100.093 67.2514 99.7904C67.5795 99.4874 68.0145 99.3271 68.4607 99.3448C68.9069 99.3624 69.3279 99.5567 69.6309 99.8847C69.9339 100.213 70.0942 100.648 70.0765 101.094L69.8097 107.824C69.7924 108.259 69.6078 108.67 69.2944 108.971C68.981 109.272 68.5632 109.441 68.1284 109.441ZM1.68506 85.7198C1.66247 85.7198 1.63985 85.7193 1.6172 85.7185C1.39624 85.7097 1.17918 85.6575 0.978395 85.5649C0.777611 85.4722 0.597039 85.341 0.446991 85.1785C0.296943 85.0161 0.180356 84.8257 0.103888 84.6182C0.0274196 84.4108 -0.00743323 84.1902 0.00131976 83.9693L0.268146 77.2392C0.285824 76.7929 0.480043 76.372 0.808079 76.069C0.970506 75.9189 1.1609 75.8023 1.36838 75.7259C1.57586 75.6494 1.79638 75.6145 2.01733 75.6233C2.23828 75.632 2.45535 75.6842 2.65613 75.7769C2.85692 75.8695 3.03749 76.0008 3.18754 76.1632C3.33759 76.3256 3.45417 76.516 3.53064 76.7235C3.60711 76.931 3.64196 77.1515 3.63321 77.3725L3.36638 84.1026C3.34914 84.5371 3.16451 84.9481 2.85112 85.2495C2.53773 85.5509 2.11988 85.7195 1.68506 85.7198ZM17.2997 93.076C17.2771 93.076 17.2545 93.0756 17.2317 93.0747C16.7855 93.057 16.3646 92.8628 16.0616 92.5347C15.7585 92.2067 15.5982 91.7717 15.6159 91.3255L15.8828 84.5954C15.8915 84.3744 15.9437 84.1574 16.0364 83.9566C16.129 83.7558 16.2603 83.5752 16.4228 83.4252C16.5852 83.2752 16.7756 83.1586 16.9831 83.0821C17.1906 83.0057 17.4111 82.9708 17.632 82.9796C17.853 82.9884 18.0701 83.0406 18.2708 83.1332C18.4716 83.2259 18.6522 83.3572 18.8022 83.5196C18.9523 83.682 19.0688 83.8724 19.1453 84.0799C19.2217 84.2874 19.2566 84.5079 19.2478 84.7289L18.981 91.4589C18.9637 91.8934 18.7791 92.3043 18.4657 92.6057C18.1523 92.9072 17.7345 93.0757 17.2997 93.076ZM21.7899 113.282C21.7673 113.282 21.7448 113.282 21.722 113.281C21.2757 113.263 20.8548 113.069 20.5518 112.741C20.2488 112.413 20.0885 111.978 20.1062 111.532L20.373 104.802C20.3818 104.581 20.434 104.364 20.5266 104.163C20.6193 103.962 20.7506 103.781 20.913 103.631C21.0755 103.481 21.2659 103.365 21.4733 103.288C21.6808 103.212 21.9014 103.177 22.1223 103.186C22.3433 103.195 22.5603 103.247 22.7611 103.339C22.9619 103.432 23.1424 103.563 23.2925 103.726C23.4425 103.888 23.5591 104.079 23.6355 104.286C23.712 104.494 23.7468 104.714 23.7381 104.935L23.4712 111.665C23.454 112.1 23.2693 112.51 22.9559 112.812C22.6426 113.113 22.2247 113.282 21.7899 113.282ZM66.6801 91.4535C66.6575 91.4535 66.6349 91.4531 66.6121 91.4522C66.3912 91.4434 66.1741 91.3912 65.9733 91.2986C65.7726 91.2059 65.592 91.0746 65.442 90.9122C65.2919 90.7498 65.1753 90.5594 65.0989 90.3519C65.0224 90.1444 64.9876 89.9239 64.9964 89.7029L65.2633 82.9728C65.2721 82.7518 65.3243 82.5348 65.4169 82.334C65.5096 82.1332 65.6409 81.9526 65.8033 81.8026C65.9658 81.6526 66.1562 81.536 66.3636 81.4595C66.5711 81.3831 66.7916 81.3482 67.0126 81.357C67.2336 81.3658 67.4506 81.418 67.6514 81.5106C67.8522 81.6033 68.0327 81.7346 68.1828 81.897C68.3328 82.0595 68.4494 82.2499 68.5258 82.4573C68.6023 82.6648 68.6371 82.8854 68.6284 83.1063L68.3614 89.8364C68.3442 90.2709 68.1595 90.6819 67.8462 90.9833C67.5328 91.2847 67.1149 91.4532 66.6801 91.4535ZM77.9824 87.5877C77.9598 87.5877 77.9372 87.5873 77.9145 87.5864C77.6936 87.5776 77.4765 87.5254 77.2757 87.4328C77.0749 87.3402 76.8944 87.2089 76.7443 87.0464C76.5943 86.884 76.4777 86.6936 76.4012 86.4861C76.3247 86.2787 76.2899 86.0581 76.2986 85.8372L76.5655 79.1071C76.5742 78.8861 76.6264 78.6691 76.7191 78.4683C76.8117 78.2675 76.943 78.0869 77.1054 77.9369C77.2678 77.7868 77.4582 77.6702 77.6657 77.5938C77.8732 77.5173 78.0937 77.4824 78.3147 77.4912C78.5356 77.4999 78.7527 77.5521 78.9535 77.6448C79.1542 77.7374 79.3348 77.8687 79.4849 78.0311C79.6349 78.1936 79.7515 78.3839 79.828 78.5914C79.9044 78.7989 79.9393 79.0194 79.9305 79.2404L79.6637 85.9705C79.6465 86.405 79.4618 86.816 79.1484 87.1174C78.835 87.4188 78.4172 87.5874 77.9824 87.5877Z" fill="#4EBAEA"/>
<path id="Vector_2" d="M54.3777 48.1171L31.1192 66.1137C30.9983 66.2072 30.8978 66.3245 30.8239 66.4582C30.7499 66.5919 30.704 66.7393 30.689 66.8914C30.674 67.0435 30.6902 67.197 30.7367 67.3426C30.7831 67.4882 30.8588 67.6228 30.9591 67.7381L39.373 77.4142C39.5107 77.5726 39.6013 77.7664 39.6344 77.9736C39.6676 78.1808 39.6419 78.3932 39.5604 78.5866L31.3632 98.044C31.2637 98.2802 31.248 98.5433 31.3187 98.7896C31.3894 99.0359 31.5422 99.2506 31.7519 99.3981C31.9615 99.5455 32.2152 99.6168 32.4709 99.6C32.7266 99.5833 32.9689 99.4796 33.1576 99.3061L55.5848 78.6811C55.8 78.4832 55.9295 78.2092 55.9458 77.9173C55.9621 77.6255 55.8639 77.3388 55.6721 77.1182L47.2447 67.4267C47.095 67.2546 47.0014 67.041 46.9761 66.8144C46.9509 66.5877 46.9953 66.3587 47.1034 66.1579L56.053 49.5371C56.175 49.3106 56.2155 49.0491 56.1677 48.7964C56.1199 48.5436 55.9867 48.3149 55.7905 48.1486C55.5943 47.9823 55.3468 47.8884 55.0897 47.8826C54.8325 47.8769 54.5812 47.9597 54.3777 48.1171Z" fill="#FDD402"/>
<path id="Vector_3" d="M46.2958 78.5866C46.3773 78.3932 46.4029 78.1809 46.3698 77.9736C46.3367 77.7664 46.2461 77.5726 46.1084 77.4142L37.6945 67.7381C37.5942 67.6228 37.5185 67.4882 37.4721 67.3426C37.4256 67.197 37.4094 67.0435 37.4244 66.8914C37.4394 66.7393 37.4853 66.5919 37.5592 66.4582C37.6332 66.3244 37.7337 66.2072 37.8546 66.1137L53.7498 53.8145L56.0531 49.5371C56.175 49.3106 56.2155 49.0491 56.1677 48.7964C56.1199 48.5436 55.9867 48.3149 55.7905 48.1486C55.5943 47.9823 55.3468 47.8884 55.0897 47.8826C54.8325 47.8769 54.5812 47.9597 54.3777 48.1171L31.1192 66.1137C30.9983 66.2072 30.8978 66.3244 30.8239 66.4582C30.7499 66.5919 30.704 66.7393 30.689 66.8914C30.674 67.0435 30.6902 67.197 30.7367 67.3426C30.7831 67.4882 30.8588 67.6228 30.9591 67.7381L39.373 77.4142C39.5107 77.5726 39.6013 77.7664 39.6344 77.9736C39.6676 78.1809 39.6419 78.3932 39.5604 78.5866L31.3632 98.044C31.2637 98.2802 31.248 98.5433 31.3187 98.7896C31.3894 99.0359 31.5423 99.2506 31.7519 99.3981C31.9615 99.5455 32.2152 99.6168 32.4709 99.6C32.7266 99.5833 32.9689 99.4796 33.1576 99.3061L40.3557 92.6865L46.2958 78.5866Z" fill="#FBBF13"/>
<path id="Vector_4" d="M76.8024 25.1679C77.2414 23.4439 77.4509 21.6696 77.4256 19.8907C77.2779 9.03346 68.3941 0.149227 57.5368 0.00241824C54.1626 -0.0460953 50.8302 0.753692 47.8456 2.32837C44.861 3.90306 42.3196 6.20219 40.4549 9.01474C37.7588 8.07012 34.8857 7.73983 32.0456 8.04804C29.2055 8.35624 26.4702 9.29514 24.0395 10.7961C21.6088 12.2971 19.5442 14.3222 17.9966 16.7235C16.449 19.1247 15.4574 21.8414 15.0945 24.6751C11.0872 25.3072 7.43721 27.349 4.80142 30.4329C2.16564 33.5168 0.717197 37.4402 0.716797 41.497C0.716797 46.0132 2.51086 50.3445 5.7043 53.538C8.89775 56.7314 13.229 58.5255 17.7452 58.5255H71.9717C76.488 58.5255 80.8192 56.7314 84.0127 53.538C87.2061 50.3445 89.0002 46.0133 89.0002 41.497C88.9995 37.8239 87.8115 34.2494 85.6133 31.3066C83.415 28.3639 80.3244 26.2106 76.8024 25.1679Z" fill="#E0E0E2"/>
<path id="Vector_5" d="M83.5378 29.6581C83.8658 29.755 84.1883 29.8647 84.5078 29.9805C84.2365 29.6855 83.9555 29.4002 83.6646 29.1244C83.6242 29.303 83.5828 29.4813 83.5378 29.6581ZM7.45218 45.9872C7.45259 41.9304 8.90103 38.0069 11.5368 34.923C14.1726 31.8392 17.8226 29.7974 21.8298 29.1652C22.1928 26.3316 23.1844 23.6149 24.732 21.2136C26.2796 18.8124 28.3442 16.7872 30.7749 15.2863C33.2056 13.7853 35.9409 12.8464 38.781 12.5382C41.6211 12.23 44.4942 12.5603 47.1903 13.5049C49.055 10.6923 51.5964 8.3932 54.581 6.81852C57.5656 5.24384 60.898 4.44405 64.2722 4.49256C66.7622 4.52511 69.2241 5.02414 71.5303 5.9638C69.4259 3.8385 66.8742 2.20907 64.0609 1.19408C61.2476 0.179082 58.2433 -0.19595 55.2668 0.0962715C52.2903 0.388493 49.4163 1.34062 46.8541 2.88336C44.2918 4.42611 42.1058 6.52067 40.4549 9.01463C37.7588 8.07 34.8857 7.73972 32.0456 8.04793C29.2055 8.35613 26.4702 9.29503 24.0395 10.796C21.6088 12.297 19.5442 14.3221 17.9966 16.7234C16.449 19.1246 15.4574 21.8413 15.0945 24.6749C11.0872 25.3071 7.43721 27.3489 4.80143 30.4328C2.16565 33.5167 0.7172 37.4401 0.716797 41.4969C0.71692 44.9965 1.79495 48.4112 3.80427 51.2766C5.81359 54.1419 8.65669 56.3188 11.9469 57.5112C9.05175 54.3724 7.44672 50.2573 7.45218 45.9872Z" fill="#D9D8DA"/>
</g>
</g>
</g>
</g>
<defs>
<filter id="filter0_d_0_1" x="-86" y="-22" width="261" height="340" filterUnits="userSpaceOnUse" color-interpolation-filters="sRGB">
<feFlood flood-opacity="0" result="BackgroundImageFix"/>
<feColorMatrix in="SourceAlpha" type="matrix" values="0 0 0 0 0 0 0 0 0 0 0 0 0 0 0 0 0 0 127 0" result="hardAlpha"/>
<feOffset dy="2"/>
<feGaussianBlur stdDeviation="3"/>
<feComposite in2="hardAlpha" operator="out"/>
<feColorMatrix type="matrix" values="0 0 0 0 0 0 0 0 0 0 0 0 0 0 0 0 0 0 0.19 0"/>
<feBlend mode="normal" in2="BackgroundImageFix" result="effect1_dropShadow_0_1"/>
<feBlend mode="normal" in="SourceGraphic" in2="effect1_dropShadow_0_1" result="shape"/>
</filter>
<clipPath id="clip0_0_1">
<rect width="1512" height="4785" fill="white" transform="translate(-570 -2056)"/>
</clipPath>
<clipPath id="clip1_0_1">
<rect width="1117" height="386" fill="white" transform="translate(-385 -43)"/>
</clipPath>
</defs>
</svg>
