<svg width="116" height="100" viewBox="0 0 116 100" fill="none" xmlns="http://www.w3.org/2000/svg">
<rect width="116" height="100" fill="#F5F5F5"/>
<g id="Home" clip-path="url(#clip0_0_1)">
<rect width="1512" height="4785" transform="translate(-838 -2065)" fill="white"/>
<g id="Frame 1" clip-path="url(#clip1_0_1)">
<g id="Group 63">
<g id="Rectangle 17" filter="url(#filter0_d_0_1)">
<rect x="-66" y="-27" width="248" height="328" rx="25" fill="white"/>
</g>
<g id="Group 34" filter="url(#filter1_d_0_1)">
<path id="Vector" d="M60.1501 18.3698C57.8613 11.1461 52.7102 5.02556 46.0197 1.57863C45.9768 1.26777 45.8546 0.973187 45.6649 0.723215C45.4752 0.473242 45.2243 0.276292 44.9365 0.151308C44.6486 0.0263242 44.3334 -0.0224879 44.0213 0.00956618C43.7091 0.0416203 43.4104 0.153462 43.154 0.334335C42.8975 0.515207 42.692 0.759025 42.557 1.04233C42.4221 1.32565 42.3623 1.63892 42.3834 1.95201C42.4045 2.26511 42.5059 2.56751 42.6777 2.83011C42.8495 3.09271 43.086 3.30668 43.3644 3.45144C43.7901 6.56856 43.6698 9.73598 43.0089 12.8118C40.2767 25.4047 28.972 34.5452 16.1299 34.5452C14.3084 34.5452 12.4741 34.3583 10.6746 33.99C9.36971 33.7139 8.08759 33.3396 6.83915 32.8703C6.5244 32.7559 6.18432 32.7298 5.85579 32.7948C5.52726 32.8599 5.22281 33.0137 4.97548 33.2395C4.72814 33.4653 4.54734 33.7546 4.4527 34.0758C4.35805 34.3971 4.35317 34.7381 4.43858 35.062C6.15976 41.5512 10.1041 47.2303 15.5838 51.1091C15.8572 51.3035 16.1789 51.4186 16.5136 51.4419C16.8482 51.4651 17.1828 51.3957 17.4804 51.2411C20.2983 49.778 23.4275 49.0161 26.6026 49.0201H43.315C43.801 49.0201 44.2671 48.827 44.6107 48.4834C44.9544 48.1397 45.1474 47.6736 45.1474 47.1876V39.6377C45.1474 30.9554 50.6999 23.3322 58.9645 20.6677C59.4258 20.5193 59.8095 20.1942 60.0317 19.7635C60.2539 19.3329 60.2965 18.8317 60.1501 18.3698Z" fill="#FBB03B"/>
<path id="Vector_2" d="M89.3471 43.5226H89.1273V39.6377C89.1273 26.6233 78.5391 16.0352 65.5247 16.0352H65.0849C52.0705 16.0352 41.4824 26.6233 41.4824 39.6377V45.3551H26.6025C13.5882 45.3551 3 55.9433 3 68.9576V69.3974C3 82.4118 13.5882 93 26.6025 93H89.3471C102.362 93 112.95 82.4118 112.95 69.3974V67.1251C112.95 54.1108 102.362 43.5226 89.3471 43.5226Z" fill="#E6E6E6"/>
<path id="Vector_3" d="M103.53 48.3034C104.905 51.3381 105.617 54.6309 105.62 57.9625V60.2348C105.62 73.2491 95.0314 83.8373 82.017 83.8373H19.2724C14.1493 83.8353 9.16772 82.1561 5.08887 79.0563C8.78867 87.2622 17.0312 92.9998 26.6024 92.9998H89.347C102.361 92.9998 112.95 82.4116 112.95 69.3972V67.1249C112.95 59.4358 109.237 52.6171 103.53 48.3034Z" fill="#CCCCCC"/>
</g>
</g>
</g>
</g>
<defs>
<filter id="filter0_d_0_1" x="-72" y="-31" width="260" height="340" filterUnits="userSpaceOnUse" color-interpolation-filters="sRGB">
<feFlood flood-opacity="0" result="BackgroundImageFix"/>
<feColorMatrix in="SourceAlpha" type="matrix" values="0 0 0 0 0 0 0 0 0 0 0 0 0 0 0 0 0 0 127 0" result="hardAlpha"/>
<feOffset dy="2"/>
<feGaussianBlur stdDeviation="3"/>
<feComposite in2="hardAlpha" operator="out"/>
<feColorMatrix type="matrix" values="0 0 0 0 0 0 0 0 0 0 0 0 0 0 0 0 0 0 0.19 0"/>
<feBlend mode="normal" in2="BackgroundImageFix" result="effect1_dropShadow_0_1"/>
<feBlend mode="normal" in="SourceGraphic" in2="effect1_dropShadow_0_1" result="shape"/>
</filter>
<filter id="filter1_d_0_1" x="0" y="0" width="115.95" height="100" filterUnits="userSpaceOnUse" color-interpolation-filters="sRGB">
<feFlood flood-opacity="0" result="BackgroundImageFix"/>
<feColorMatrix in="SourceAlpha" type="matrix" values="0 0 0 0 0 0 0 0 0 0 0 0 0 0 0 0 0 0 127 0" result="hardAlpha"/>
<feOffset dy="4"/>
<feGaussianBlur stdDeviation="1.5"/>
<feComposite in2="hardAlpha" operator="out"/>
<feColorMatrix type="matrix" values="0 0 0 0 0 0 0 0 0 0 0 0 0 0 0 0 0 0 0.25 0"/>
<feBlend mode="normal" in2="BackgroundImageFix" result="effect1_dropShadow_0_1"/>
<feBlend mode="normal" in="SourceGraphic" in2="effect1_dropShadow_0_1" result="shape"/>
</filter>
<clipPath id="clip0_0_1">
<rect width="1512" height="4785" fill="white" transform="translate(-838 -2065)"/>
</clipPath>
<clipPath id="clip1_0_1">
<rect width="1117" height="386" fill="white" transform="translate(-653 -52)"/>
</clipPath>
</defs>
</svg>
