<svg width="19" height="19" viewBox="0 0 19 19" fill="none" xmlns="http://www.w3.org/2000/svg">
<path id="Vector" d="M13.8044 0C15.1731 0.764941 16.346 1.83677 17.2307 3.13132C18.1155 4.42588 18.6882 5.90791 18.9037 7.46106C19.1192 9.0142 18.9718 10.5962 18.473 12.0827C17.9741 13.5693 17.1375 14.92 16.0287 16.0287C14.92 17.1375 13.5693 17.9741 12.0827 18.473C10.5962 18.9718 9.0142 19.1192 7.46106 18.9037C5.90791 18.6882 4.42588 18.1155 3.13132 17.2307C1.83677 16.346 0.764941 15.1731 0 13.8044C3.86253 15.9667 8.84039 15.4108 12.125 12.1262C15.4108 8.8404 15.9678 3.86369 13.8044 0Z" fill="#B0B0B0"/>
</svg>
