<svg width="27" height="27" viewBox="0 0 27 27" fill="none" xmlns="http://www.w3.org/2000/svg">
<path d="M13.5 0C6.05584 0 0 6.05597 0 13.4998C0 20.9438 6.05584 27 13.5 27C20.9437 27 27 20.9438 27 13.4998C27 6.05597 20.9437 0 13.5 0ZM17.3155 8.52213C17.3155 8.58605 17.2901 8.64736 17.2449 8.69256C17.1997 8.73776 17.1384 8.76315 17.0745 8.76315L15.5398 8.76412C14.5273 8.76412 14.3422 9.15843 14.3422 9.93501V11.546H16.9742C17.0434 11.546 17.1094 11.5759 17.155 11.628C17.2005 11.68 17.2217 11.7492 17.2133 11.8179L16.8385 14.7181C16.831 14.7762 16.8026 14.8296 16.7586 14.8683C16.7146 14.907 16.658 14.9283 16.5994 14.9283H14.3422V22.1299C14.3422 22.1938 14.3168 22.2551 14.2716 22.3003C14.2264 22.3455 14.1651 22.3709 14.1011 22.3709H11.1066C11.0427 22.3709 10.9814 22.3455 10.9362 22.3003C10.891 22.2551 10.8656 22.1938 10.8656 22.1299V14.9283H8.6011C8.53717 14.9283 8.47587 14.9029 8.43066 14.8577C8.38546 14.8125 8.36007 14.7512 8.36007 14.6873V11.787C8.36007 11.7231 8.38546 11.6618 8.43066 11.6166C8.47587 11.5714 8.53717 11.546 8.6011 11.546H10.8656V9.64795C10.8656 7.13407 12.3869 5.57272 14.8365 5.57272C15.8896 5.57272 16.8202 5.65105 17.106 5.68889C17.164 5.69655 17.2171 5.72499 17.2557 5.76893C17.2942 5.81287 17.3155 5.86931 17.3155 5.92775V8.52213Z" fill="white"/>
</svg>
