<svg width="28" height="21" viewBox="0 0 28 21" fill="none" xmlns="http://www.w3.org/2000/svg">
<path d="M0 0H28V7H0V0Z" fill="#FF9933"/>
<path d="M0 7H28V14H0V7Z" fill="white"/>
<path d="M0 14H28V21H0V14Z" fill="#128807"/>
<path d="M14 13.3C15.5464 13.3 16.8 12.0463 16.8 10.5C16.8 8.95355 15.5464 7.69995 14 7.69995C12.4536 7.69995 11.2 8.95355 11.2 10.5C11.2 12.0463 12.4536 13.3 14 13.3Z" fill="#000088"/>
<path d="M14.0001 12.9499C15.3532 12.9499 16.4501 11.853 16.4501 10.4999C16.4501 9.14683 15.3532 8.04993 14.0001 8.04993C12.647 8.04993 11.5501 9.14683 11.5501 10.4999C11.5501 11.853 12.647 12.9499 14.0001 12.9499Z" fill="white"/>
<path d="M14.0001 10.9899C14.2707 10.9899 14.4901 10.7705 14.4901 10.4999C14.4901 10.2293 14.2707 10.0099 14.0001 10.0099C13.7295 10.0099 13.5101 10.2293 13.5101 10.4999C13.5101 10.7705 13.7295 10.9899 14.0001 10.9899Z" fill="#000088"/>
<path d="M16.413 10.9411C16.4801 10.95 16.5416 10.9028 16.5505 10.8357C16.5593 10.7686 16.5121 10.7071 16.445 10.6982C16.3779 10.6894 16.3164 10.7366 16.3076 10.8037C16.2987 10.8708 16.3459 10.9323 16.413 10.9411Z" fill="#000088"/>
<path d="M13.9999 12.9499L14.0839 11.4799L13.9999 10.7799L13.9159 11.4799L13.9999 12.9499Z" fill="#000088"/>
<path d="M16.2167 11.5507C16.2792 11.5766 16.3508 11.5469 16.3767 11.4844C16.4026 11.4219 16.3729 11.3502 16.3104 11.3243C16.2479 11.2985 16.1763 11.3281 16.1504 11.3906C16.1245 11.4531 16.1542 11.5248 16.2167 11.5507Z" fill="#000088"/>
<path d="M13.3659 12.8663L13.8275 11.4682L13.9275 10.7703L13.6652 11.4247L13.3659 12.8663Z" fill="#000088"/>
<path d="M15.8694 12.0886C15.9231 12.1298 16 12.1197 16.0412 12.066C16.0823 12.0124 16.0722 11.9355 16.0185 11.8943C15.9649 11.8531 15.888 11.8632 15.8468 11.9169C15.8056 11.9706 15.8157 12.0475 15.8694 12.0886Z" fill="#000088"/>
<path d="M12.7752 12.6217L13.5829 11.3907L13.8602 10.7424L13.4374 11.3067L12.7752 12.6217Z" fill="#000088"/>
<path d="M15.3944 12.5182C15.4356 12.5719 15.5125 12.582 15.5662 12.5408C15.6199 12.4996 15.63 12.4227 15.5888 12.369C15.5476 12.3154 15.4707 12.3052 15.417 12.3464C15.3634 12.3876 15.3532 12.4645 15.3944 12.5182Z" fill="#000088"/>
<path d="M12.2677 12.2324L13.3666 11.2523L13.8022 10.6979L13.2478 11.1335L12.2677 12.2324Z" fill="#000088"/>
<path d="M14.824 12.8103C14.8499 12.8728 14.9216 12.9025 14.9841 12.8766C15.0466 12.8507 15.0762 12.7791 15.0504 12.7166C15.0245 12.6541 14.9528 12.6244 14.8903 12.6503C14.8278 12.6762 14.7981 12.7478 14.824 12.8103Z" fill="#000088"/>
<path d="M11.8778 11.7249L13.1929 11.0626L13.7571 10.6399L13.1089 10.9171L11.8778 11.7249Z" fill="#000088"/>
<path d="M14.198 12.9449C14.2068 13.012 14.2684 13.0592 14.3355 13.0504C14.4025 13.0416 14.4497 12.98 14.4409 12.913C14.4321 12.8459 14.3706 12.7987 14.3035 12.8075C14.2364 12.8163 14.1892 12.8779 14.198 12.9449Z" fill="#000088"/>
<path d="M11.6331 11.134L13.0748 10.8347L13.7292 10.5723L13.0313 10.6724L11.6331 11.134Z" fill="#000088"/>
<path d="M13.5587 12.913C13.5499 12.98 13.5971 13.0416 13.6642 13.0504C13.7313 13.0592 13.7928 13.012 13.8016 12.9449C13.8105 12.8779 13.7633 12.8163 13.6962 12.8075C13.6291 12.7987 13.5676 12.8459 13.5587 12.913Z" fill="#000088"/>
<path d="M11.5501 10.4999L13.0201 10.5839L13.7201 10.4999L13.0201 10.4159L11.5501 10.4999Z" fill="#000088"/>
<path d="M12.9489 12.7166C12.923 12.7791 12.9527 12.8507 13.0152 12.8766C13.0777 12.9025 13.1494 12.8728 13.1753 12.8103C13.2011 12.7478 13.1715 12.6762 13.109 12.6503C13.0465 12.6244 12.9748 12.6541 12.9489 12.7166Z" fill="#000088"/>
<path d="M11.6331 9.86581L13.0313 10.3274L13.7292 10.4275L13.0748 10.1651L11.6331 9.86581Z" fill="#000088"/>
<path d="M12.4114 12.3689C12.3702 12.4226 12.3803 12.4995 12.434 12.5407C12.4877 12.5819 12.5646 12.5718 12.6058 12.5181C12.6469 12.4644 12.6368 12.3875 12.5831 12.3463C12.5295 12.3051 12.4526 12.3153 12.4114 12.3689Z" fill="#000088"/>
<path d="M11.8783 9.27486L13.1094 10.0826L13.7576 10.3599L13.1934 9.93711L11.8783 9.27486Z" fill="#000088"/>
<path d="M11.9817 11.8941C11.9281 11.9353 11.9179 12.0122 11.9591 12.0659C12.0003 12.1196 12.0772 12.1297 12.1309 12.0885C12.1845 12.0473 12.1947 11.9704 12.1535 11.9167C12.1123 11.8631 12.0354 11.8529 11.9817 11.8941Z" fill="#000088"/>
<path d="M12.2677 8.76741L13.2477 9.86625L13.8021 10.3018L13.3665 9.74746L12.2677 8.76741Z" fill="#000088"/>
<path d="M11.6902 11.3242C11.6277 11.3501 11.598 11.4217 11.6239 11.4842C11.6498 11.5467 11.7215 11.5764 11.784 11.5505C11.8465 11.5247 11.8762 11.453 11.8503 11.3905C11.8244 11.328 11.7527 11.2983 11.6902 11.3242Z" fill="#000088"/>
<path d="M12.7757 8.37806L13.4379 9.69311L13.8607 10.2573L13.5834 9.60911L12.7757 8.37806Z" fill="#000088"/>
<path d="M11.5553 10.6983C11.4882 10.7071 11.441 10.7686 11.4498 10.8357C11.4587 10.9028 11.5202 10.95 11.5873 10.9412C11.6544 10.9323 11.7016 10.8708 11.6928 10.8037C11.6839 10.7366 11.6224 10.6894 11.5553 10.6983Z" fill="#000088"/>
<path d="M13.3663 8.13332L13.6656 9.57498L13.928 10.2294L13.8279 9.53149L13.3663 8.13332Z" fill="#000088"/>
<path d="M11.5876 10.0586C11.5205 10.0498 11.4589 10.097 11.4501 10.1641C11.4413 10.2312 11.4885 10.2927 11.5556 10.3015C11.6227 10.3103 11.6842 10.2631 11.693 10.1961C11.7019 10.129 11.6546 10.0674 11.5876 10.0586Z" fill="#000088"/>
<path d="M14.0006 8.04985L13.9166 9.51985L14.0006 10.2198L14.0846 9.51985L14.0006 8.04985Z" fill="#000088"/>
<path d="M11.7839 9.44906C11.7214 9.42317 11.6498 9.45285 11.6239 9.51536C11.598 9.57786 11.6277 9.64952 11.6902 9.67541C11.7527 9.7013 11.8243 9.67162 11.8502 9.60911C11.8761 9.54661 11.8464 9.47495 11.7839 9.44906Z" fill="#000088"/>
<path d="M14.6347 8.1333L14.1731 9.53147L14.073 10.2294L14.3353 9.57495L14.6347 8.1333Z" fill="#000088"/>
<path d="M12.131 8.91123C12.0773 8.87005 12.0004 8.88017 11.9592 8.93384C11.918 8.98752 11.9281 9.06442 11.9818 9.1056C12.0355 9.14679 12.1124 9.13666 12.1536 9.08299C12.1948 9.02932 12.1846 8.95242 12.131 8.91123Z" fill="#000088"/>
<path d="M15.2252 8.37804L14.4174 9.6091L14.1402 10.2573L14.5629 9.6931L15.2252 8.37804Z" fill="#000088"/>
<path d="M12.6059 8.48157C12.5647 8.4279 12.4878 8.41777 12.4341 8.45896C12.3804 8.50015 12.3703 8.57705 12.4115 8.63072C12.4527 8.68439 12.5296 8.69452 12.5832 8.65333C12.6369 8.61215 12.647 8.53525 12.6059 8.48157Z" fill="#000088"/>
<path d="M15.7325 8.76739L14.6337 9.74744L14.1981 10.3018L14.7525 9.86623L15.7325 8.76739Z" fill="#000088"/>
<path d="M13.1755 8.18955C13.1496 8.12705 13.078 8.09736 13.0155 8.12326C12.953 8.14915 12.9233 8.2208 12.9492 8.28331C12.9751 8.34581 13.0467 8.3755 13.1092 8.34961C13.1717 8.32372 13.2014 8.25206 13.1755 8.18955Z" fill="#000088"/>
<path d="M16.1216 9.27499L14.8066 9.93725L14.2424 10.36L14.8906 10.0827L16.1216 9.27499Z" fill="#000088"/>
<path d="M13.8017 8.05494C13.7928 7.98787 13.7313 7.94065 13.6642 7.94948C13.5971 7.95831 13.5499 8.01985 13.5587 8.08692C13.5676 8.154 13.6291 8.20122 13.6962 8.19238C13.7633 8.18355 13.8105 8.12202 13.8017 8.05494Z" fill="#000088"/>
<path d="M16.3664 9.86589L14.9248 10.1652L14.2704 10.4275L14.9683 10.3275L16.3664 9.86589Z" fill="#000088"/>
<path d="M14.4415 8.08692C14.4503 8.01984 14.4031 7.95831 14.336 7.94948C14.2689 7.94065 14.2074 7.98786 14.1986 8.05494C14.1897 8.12202 14.237 8.18355 14.304 8.19238C14.3711 8.20121 14.4326 8.15399 14.4415 8.08692Z" fill="#000088"/>
<path d="M16.4503 10.5L14.9803 10.416L14.2803 10.5L14.9803 10.584L16.4503 10.5Z" fill="#000088"/>
<path d="M15.0512 8.28332C15.0771 8.22081 15.0474 8.14915 14.9849 8.12326C14.9224 8.09737 14.8507 8.12705 14.8248 8.18956C14.7989 8.25206 14.8286 8.32372 14.8911 8.34961C14.9536 8.3755 15.0253 8.34582 15.0512 8.28332Z" fill="#000088"/>
<path d="M16.3669 11.1341L14.9687 10.6725L14.2709 10.5724L14.9253 10.8347L16.3669 11.1341Z" fill="#000088"/>
<path d="M15.5886 8.6307C15.6297 8.57702 15.6196 8.50012 15.5659 8.45894C15.5123 8.41775 15.4354 8.42788 15.3942 8.48155C15.353 8.53522 15.3631 8.61212 15.4168 8.65331C15.4705 8.69449 15.5474 8.68437 15.5886 8.6307Z" fill="#000088"/>
<path d="M16.1216 11.7249L14.8906 10.9172L14.2423 10.6399L14.8066 11.0626L16.1216 11.7249Z" fill="#000088"/>
<path d="M16.0182 9.10564C16.0719 9.06445 16.082 8.98755 16.0408 8.93388C15.9996 8.8802 15.9227 8.87008 15.869 8.91127C15.8154 8.95245 15.8052 9.02935 15.8464 9.08303C15.8876 9.1367 15.9645 9.14682 16.0182 9.10564Z" fill="#000088"/>
<path d="M15.7322 12.2323L14.7522 11.1335L14.1978 10.6979L14.6334 11.2523L15.7322 12.2323Z" fill="#000088"/>
<path d="M16.3106 9.67557C16.3731 9.64968 16.4028 9.57802 16.3769 9.51551C16.351 9.45301 16.2793 9.42332 16.2168 9.44922C16.1543 9.47511 16.1247 9.54676 16.1505 9.60927C16.1764 9.67177 16.2481 9.70146 16.3106 9.67557Z" fill="#000088"/>
<path d="M15.2252 12.6218L14.5629 11.3068L14.1402 10.7425L14.4174 11.3908L15.2252 12.6218Z" fill="#000088"/>
<path d="M16.4451 10.3016C16.5121 10.2928 16.5594 10.2313 16.5505 10.1642C16.5417 10.0971 16.4802 10.0499 16.4131 10.0587C16.346 10.0675 16.2988 10.1291 16.3076 10.1962C16.3164 10.2632 16.378 10.3105 16.4451 10.3016Z" fill="#000088"/>
<path d="M14.634 12.8666L14.3347 11.4249L14.0724 10.7705L14.1724 11.4684L14.634 12.8666Z" fill="#000088"/>
</svg>
