<svg width="27" height="27" viewBox="0 0 27 27" fill="none" xmlns="http://www.w3.org/2000/svg">
<path d="M18.9816 9.35324C18.8644 9.04984 18.685 8.77435 18.455 8.54449C18.2249 8.31464 17.9492 8.13554 17.6457 8.01871C17.2277 7.86392 16.7863 7.7821 16.3407 7.77684C15.5996 7.74309 15.3774 7.73465 13.5 7.73465C11.6227 7.73465 11.4005 7.74309 10.6594 7.77684C10.2133 7.78194 9.77137 7.86376 9.353 8.01871C9.0496 8.13586 8.7741 8.31525 8.54425 8.54535C8.3144 8.77544 8.13529 9.05113 8.01847 9.35465C7.86368 9.77258 7.78186 10.214 7.77659 10.6596C7.74284 11.4007 7.73441 11.6229 7.73441 13.5003C7.73441 15.3776 7.74284 15.5998 7.77659 16.3409C7.7817 16.787 7.86352 17.2289 8.01847 17.6473C8.13561 17.9507 8.31501 18.2262 8.5451 18.4561C8.7752 18.6859 9.05088 18.865 9.35441 18.9818C9.77234 19.1366 10.2138 19.2184 10.6594 19.2237C11.4005 19.2575 11.6227 19.2659 13.5 19.2659C15.3774 19.2659 15.5996 19.2575 16.3407 19.2237C16.7868 19.2186 17.2287 19.1368 17.6471 18.9818C17.9505 18.8647 18.226 18.6853 18.4558 18.4552C18.6857 18.2251 18.8648 17.9494 18.9816 17.6459C19.1364 17.228 19.2182 16.7865 19.2235 16.3409C19.2572 15.5998 19.2657 15.3776 19.2657 13.5003C19.2657 11.6229 19.2572 11.4007 19.2235 10.6596C19.2184 10.2135 19.1365 9.77162 18.9816 9.35324ZM13.5 17.1115C12.7858 17.1115 12.0876 16.8997 11.4937 16.5029C10.8999 16.1061 10.437 15.5421 10.1637 14.8822C9.89034 14.2224 9.81883 13.4963 9.95817 12.7958C10.0975 12.0952 10.4414 11.4518 10.9465 10.9467C11.4515 10.4417 12.095 10.0978 12.7955 9.95841C13.496 9.81907 14.2221 9.89059 14.882 10.1639C15.5419 10.4372 16.1059 10.9001 16.5027 11.494C16.8995 12.0878 17.1113 12.786 17.1113 13.5003C17.1113 14.458 16.7308 15.3766 16.0536 16.0538C15.3763 16.7311 14.4578 17.1115 13.5 17.1115ZM17.2533 10.5907C17.0864 10.5907 16.9233 10.5413 16.7845 10.4485C16.6458 10.3558 16.5376 10.2241 16.4738 10.0699C16.4099 9.91571 16.3932 9.74606 16.4258 9.58239C16.4583 9.41871 16.5387 9.26837 16.6567 9.15037C16.7747 9.03237 16.925 8.95201 17.0887 8.91946C17.2524 8.8869 17.422 8.90361 17.5762 8.96747C17.7304 9.03133 17.8621 9.13948 17.9549 9.27823C18.0476 9.41698 18.0971 9.58012 18.0971 9.74699C18.0971 9.97077 18.0082 10.1854 17.8499 10.3436C17.6917 10.5018 17.4771 10.5907 17.2533 10.5907Z" fill="white"/>
<path d="M13.4999 15.8446C14.7946 15.8446 15.8442 14.7951 15.8442 13.5004C15.8442 12.2057 14.7946 11.1562 13.4999 11.1562C12.2053 11.1562 11.1557 12.2057 11.1557 13.5004C11.1557 14.7951 12.2053 15.8446 13.4999 15.8446Z" fill="white"/>
<path d="M13.5 0C10.83 0 8.21987 0.791761 5.99981 2.27516C3.77974 3.75856 2.04941 5.86697 1.02763 8.33377C0.00584931 10.8006 -0.261496 13.515 0.259405 16.1337C0.780305 18.7525 2.06606 21.1579 3.95406 23.0459C5.84207 24.9339 8.24754 26.2197 10.8663 26.7406C13.485 27.2615 16.1994 26.9942 18.6662 25.9724C21.133 24.9506 23.2414 23.2203 24.7248 21.0002C26.2082 18.7801 27 16.17 27 13.5C27 9.91958 25.5777 6.4858 23.0459 3.95406C20.5142 1.42232 17.0804 0 13.5 0ZM20.4891 16.3997C20.477 16.9827 20.3662 17.5595 20.1614 18.1055C19.9808 18.5724 19.7046 18.9966 19.3506 19.3506C18.9966 19.7046 18.5725 19.9808 18.1055 20.1614C17.5595 20.3662 16.9827 20.477 16.3997 20.4891C15.6488 20.5228 15.4097 20.5312 13.5 20.5312C11.5903 20.5312 11.3513 20.5228 10.6003 20.4891C10.0173 20.477 9.44053 20.3662 8.89454 20.1614C8.42755 19.9808 8.00345 19.7046 7.6494 19.3506C7.29536 18.9966 7.01919 18.5724 6.8386 18.1055C6.63379 17.5595 6.52301 16.9827 6.51094 16.3997C6.47719 15.6487 6.46875 15.4097 6.46875 13.5C6.46875 11.5903 6.47719 11.3512 6.51094 10.6003C6.52301 10.0173 6.63379 9.44053 6.8386 8.89453C7.01919 8.42754 7.29536 8.00344 7.6494 7.6494C8.00345 7.29536 8.42755 7.01919 8.89454 6.83859C9.44053 6.63379 10.0173 6.523 10.6003 6.51094C11.3513 6.47719 11.5903 6.46875 13.5 6.46875C15.4097 6.46875 15.6488 6.47719 16.3997 6.51094C16.9827 6.523 17.5595 6.63379 18.1055 6.83859C18.5725 7.01919 18.9966 7.29536 19.3506 7.6494C19.7046 8.00344 19.9808 8.42754 20.1614 8.89453C20.3662 9.44053 20.477 10.0173 20.4891 10.6003C20.5228 11.3512 20.5313 11.5903 20.5313 13.5C20.5313 15.4097 20.5228 15.6487 20.4891 16.3997Z" fill="white"/>
</svg>
