<svg width="27" height="27" viewBox="0 0 27 27" fill="none" xmlns="http://www.w3.org/2000/svg">
<path d="M14.845 11.9422H14.8657V11.9097L14.845 11.9422ZM14.845 11.9422H14.8657V11.9097L14.845 11.9422ZM14.845 11.9422H14.8657V11.9097L14.845 11.9422ZM14.845 11.9422H14.8657V11.9097L14.845 11.9422ZM14.845 11.9422H14.8657V11.9097L14.845 11.9422ZM14.845 11.9422H14.8657V11.9097L14.845 11.9422ZM14.845 11.9422H14.8657V11.9097L14.845 11.9422ZM14.845 11.9422H14.8657V11.9097L14.845 11.9422ZM14.845 11.9422H14.8657V11.9097L14.845 11.9422ZM14.845 11.9422H14.8657V11.9097L14.845 11.9422ZM14.845 11.9422H14.8657V11.9097L14.845 11.9422ZM14.845 11.9422H14.8657V11.9097L14.845 11.9422ZM14.845 11.9422H14.8657V11.9097L14.845 11.9422ZM14.845 11.9422H14.8657V11.9097L14.845 11.9422ZM14.845 11.9422H14.8657V11.9097L14.845 11.9422ZM14.845 11.9422H14.8657V11.9097L14.845 11.9422ZM13.5 0C10.83 0 8.21987 0.791761 5.99981 2.27516C3.77974 3.75856 2.04941 5.86697 1.02763 8.33377C0.00584918 10.8006 -0.261496 13.515 0.259405 16.1337C0.780305 18.7525 2.06606 21.1579 3.95406 23.0459C5.84207 24.9339 8.24754 26.2197 10.8663 26.7406C13.485 27.2615 16.1994 26.9942 18.6662 25.9724C21.133 24.9506 23.2414 23.2203 24.7248 21.0002C26.2082 18.7801 27 16.17 27 13.5C26.9961 9.92078 25.5725 6.48927 23.0416 3.95838C20.5107 1.42749 17.0792 0.00391215 13.5 0ZM10.1243 19.5775C10.1235 19.6374 10.0992 19.6945 10.0566 19.7365C10.014 19.7786 9.95651 19.8022 9.89666 19.8022H7.29538C7.2358 19.8022 7.17866 19.7785 7.13653 19.7364C7.0944 19.6942 7.07073 19.6371 7.07073 19.5775V10.8367C7.07034 10.8069 7.07586 10.7774 7.08697 10.7498C7.09809 10.7222 7.11457 10.6971 7.13547 10.6759C7.15637 10.6547 7.18127 10.6379 7.20872 10.6264C7.23618 10.6149 7.26563 10.609 7.29538 10.609H9.89666C9.92655 10.609 9.95614 10.6149 9.98376 10.6264C10.0114 10.6378 10.0365 10.6546 10.0576 10.6757C10.0787 10.6968 10.0955 10.7219 10.1069 10.7495C10.1184 10.7772 10.1243 10.8068 10.1243 10.8367V19.5775ZM8.50438 9.44143C8.18108 9.44143 7.86503 9.34555 7.59621 9.16594C7.3274 8.98632 7.11788 8.73102 6.99415 8.43232C6.87043 8.13363 6.83806 7.80495 6.90113 7.48786C6.96421 7.17076 7.11989 6.8795 7.3485 6.65088C7.57712 6.42227 7.86838 6.26659 8.18548 6.20351C8.50257 6.14044 8.83125 6.17281 9.12994 6.29653C9.42864 6.42026 9.68394 6.62978 9.86356 6.89859C10.0432 7.16741 10.139 7.48346 10.139 7.80676C10.1394 8.02154 10.0974 8.23428 10.0154 8.43278C9.9334 8.63128 9.813 8.81164 9.66113 8.96351C9.50926 9.11538 9.3289 9.23578 9.1304 9.31779C8.9319 9.3998 8.71916 9.44181 8.50438 9.44143ZM21.1324 19.5775C21.1316 19.6374 21.1073 19.6945 21.0647 19.7365C21.0221 19.7786 20.9646 19.8022 20.9048 19.8022H18.3035C18.274 19.8022 18.2448 19.7964 18.2175 19.7851C18.1903 19.7738 18.1655 19.7572 18.1446 19.7364C18.1238 19.7155 18.1072 19.6907 18.0959 19.6635C18.0846 19.6362 18.0788 19.607 18.0788 19.5775V14.8804C18.0788 13.6448 17.6384 12.8113 16.5328 12.8113C16.1884 12.8132 15.8529 12.9216 15.5724 13.1216C15.2919 13.3217 15.0802 13.6035 14.9662 13.9286C14.8882 14.1689 14.8542 14.4212 14.8657 14.6735V19.5775C14.8657 19.6379 14.8417 19.6958 14.799 19.7385C14.7563 19.7811 14.6984 19.8051 14.6381 19.8051H12.0368C12.007 19.8051 11.9776 19.7992 11.9501 19.7877C11.9227 19.7763 11.8978 19.7595 11.8769 19.7383C11.856 19.7171 11.8395 19.692 11.8284 19.6644C11.8173 19.6368 11.8117 19.6073 11.8121 19.5775C11.8121 18.3301 11.8447 12.2733 11.8121 10.8485C11.8117 10.8187 11.8173 10.7892 11.8284 10.7616C11.8395 10.734 11.856 10.7089 11.8769 10.6877C11.8978 10.6665 11.9227 10.6497 11.9501 10.6382C11.9776 10.6268 12.007 10.6209 12.0368 10.6209H14.6321C14.6621 10.6205 14.6919 10.6261 14.7197 10.6374C14.7475 10.6487 14.7728 10.6654 14.794 10.6866C14.8152 10.7079 14.8319 10.7331 14.8432 10.7609C14.8545 10.7887 14.8602 10.8185 14.8598 10.8485V11.9215C15.1363 11.4415 15.5389 11.0464 16.0241 10.7791C16.5092 10.5118 17.0583 10.3824 17.6118 10.4051C19.6189 10.4051 21.1265 11.7175 21.1265 14.5435L21.1324 19.5775ZM14.8657 11.9511V11.9185L14.845 11.9511H14.8657ZM14.845 11.9511H14.8657V11.9185L14.845 11.9511ZM14.845 11.9511H14.8657V11.9185L14.845 11.9511ZM14.845 11.9511H14.8657V11.9185L14.845 11.9511ZM14.845 11.9511H14.8657V11.9185L14.845 11.9511ZM14.845 11.9511H14.8657V11.9185L14.845 11.9511ZM14.845 11.9511H14.8657V11.9185L14.845 11.9511ZM14.845 11.9511H14.8657V11.9185L14.845 11.9511ZM14.845 11.9511H14.8657V11.9185L14.845 11.9511ZM14.845 11.9511H14.8657V11.9185L14.845 11.9511ZM14.845 11.9511H14.8657V11.9185L14.845 11.9511ZM14.845 11.9511H14.8657V11.9185L14.845 11.9511ZM14.845 11.9511H14.8657V11.9185L14.845 11.9511ZM14.845 11.9511H14.8657V11.9185L14.845 11.9511ZM14.845 11.9511H14.8657V11.9185L14.845 11.9511Z" fill="white"/>
</svg>
