<svg width="28" height="19" viewBox="0 0 28 19" fill="none" xmlns="http://www.w3.org/2000/svg">
<path d="M0 0.000488281H27.9999V18.6673H0V0.000488281Z" fill="#F0F0F0"/>
<path d="M15.75 0H12.25V7.58328H0V11.0833H12.25V18.6666H15.75V11.0833H27.9999V7.58328H15.75V0Z" fill="#D80027"/>
<path d="M21.5351 12.5797L28 16.1713V12.5797H21.5351ZM17.0435 12.5797L28 18.6666V16.9453L20.1418 12.5797H17.0435ZM25.0815 18.6666L17.0435 14.2006V18.6666H25.0815Z" fill="#0052B4"/>
<path d="M17.0435 12.5797L28 18.6666V16.9453L20.1418 12.5797H17.0435Z" fill="#F0F0F0"/>
<path d="M17.0435 12.5797L28 18.6666V16.9453L20.1418 12.5797H17.0435Z" fill="#D80027"/>
<path d="M4.94051 12.5795L0 15.3243V12.5795H4.94051ZM10.9565 13.3536V18.6665H1.39404L10.9565 13.3536Z" fill="#0052B4"/>
<path d="M7.8582 12.5797L0 16.9453V18.6666L10.9565 12.5797H7.8582Z" fill="#D80027"/>
<path d="M6.46487 6.08693L0 2.49528V6.08693H6.46487ZM10.9565 6.08693L0 0V1.72123L7.8582 6.08693H10.9565ZM2.91845 0L10.9565 4.46599V0H2.91845Z" fill="#0052B4"/>
<path d="M10.9565 6.08693L0 0V1.72123L7.8582 6.08693H10.9565Z" fill="#F0F0F0"/>
<path d="M10.9565 6.08693L0 0V1.72123L7.8582 6.08693H10.9565Z" fill="#D80027"/>
<path d="M23.0595 6.08704L28 3.34228V6.08704H23.0595ZM17.0435 5.313V6.10352e-05H26.6059L17.0435 5.313Z" fill="#0052B4"/>
<path d="M20.1418 6.08693L28 1.72123V0L17.0435 6.08693H20.1418Z" fill="#D80027"/>
</svg>
