<svg width="29" height="20" viewBox="0 0 29 20" fill="none" xmlns="http://www.w3.org/2000/svg">
<path d="M0 0H29V19.3335H0V0Z" fill="#F0F0F0"/>
<path d="M0 2.4165H29V4.83296H0V2.4165ZM0 7.25004H29V9.6665H0V7.25004ZM0 12.083H29V14.4994H0V12.083ZM0 16.9165H29V19.333H0V16.9165Z" fill="#D80027"/>
<path d="M0 2.43555H14.5V12.8459H0V2.43555Z" fill="#2E52B2"/>
<path d="M5.65392 6.70015L5.42039 7.41858H4.66504L5.27624 7.86236L5.04272 8.58073L5.65392 8.13695L6.26474 8.58073L6.03126 7.86236L6.64247 7.41858H5.88706L5.65392 6.70015ZM5.88706 10.0111L5.65392 9.29276L5.42039 10.0111H4.66504L5.27624 10.455L5.04272 11.1733L5.65392 10.7295L6.26474 11.1733L6.03126 10.455L6.64247 10.0111H5.88706ZM2.69473 10.0111L2.46154 9.29276L2.22802 10.0111H1.47266L2.08387 10.455L1.85034 11.1733L2.46154 10.7295L3.07241 11.1733L2.83894 10.455L3.45004 10.0111H2.69473ZM2.46154 6.70015L2.22802 7.41858H1.47266L2.08387 7.86236L1.85034 8.58073L2.46154 8.13695L3.07241 8.58073L2.83894 7.86236L3.45004 7.41858H2.69473L2.46154 6.70015ZM5.65392 4.10748L5.42039 4.82597H4.66504L5.27624 5.26981L5.04272 5.98818L5.65392 5.54434L6.26474 5.98818L6.03126 5.26981L6.64247 4.82597H5.88706L5.65392 4.10748ZM2.46154 4.10748L2.22802 4.82597H1.47266L2.08387 5.26981L1.85034 5.98818L2.46154 5.54434L3.07241 5.98818L2.83894 5.26981L3.45004 4.82597H2.69473L2.46154 4.10748ZM8.84625 6.70015L8.61277 7.41858H7.85741L8.46857 7.86236L8.23515 8.58073L8.84625 8.13695L9.45717 8.58073L9.22364 7.86236L9.83485 7.41858H9.07949L8.84625 6.70015ZM9.07949 10.0111L8.84625 9.29276L8.61277 10.0111H7.85741L8.46857 10.455L8.23515 11.1733L8.84625 10.7295L9.45717 11.1733L9.22364 10.455L9.83485 10.0111H9.07949ZM12.2719 10.0111L12.0387 9.29276L11.8052 10.0111H11.0499L11.6609 10.455L11.4275 11.1733L12.0387 10.7295L12.6496 11.1733L12.416 10.455L13.0272 10.0111H12.2719ZM12.0387 6.70015L11.8052 7.41858H11.0499L11.6609 7.86236L11.4275 8.58073L12.0387 8.13695L12.6496 8.58073L12.416 7.86236L13.0272 7.41858H12.2719L12.0387 6.70015ZM8.84625 4.10748L8.61277 4.82597H7.85741L8.46857 5.26981L8.23515 5.98818L8.84625 5.54434L9.45717 5.98818L9.22364 5.26981L9.83485 4.82597H9.07949L8.84625 4.10748ZM12.0387 4.10748L11.8052 4.82597H11.0499L11.6609 5.26981L11.4275 5.98818L12.0387 5.54434L12.6496 5.98818L12.416 5.26981L13.0272 4.82597H12.2719L12.0387 4.10748Z" fill="#F0F0F0"/>
</svg>
