<svg width="27" height="27" viewBox="0 0 27 27" fill="none" xmlns="http://www.w3.org/2000/svg">
<path d="M13.4998 0C6.05608 0 0 6.05597 0 13.4998C0 20.9438 6.05608 27 13.4998 27C20.9439 27 27 20.9438 27 13.4998C26.9998 6.05597 20.9437 0 13.4998 0ZM20.6848 9.97888C20.3269 10.5149 19.8817 10.9872 19.3678 11.3763C19.37 11.4547 19.3715 11.533 19.3715 11.6113C19.3715 15.5482 16.3757 19.6203 11.3623 19.6203C9.83241 19.6211 8.33449 19.1824 7.04671 18.3564C7.0008 18.3271 6.9662 18.2831 6.9486 18.2315C6.93099 18.18 6.93142 18.124 6.94981 18.0727C6.96771 18.0212 7.00273 17.9773 7.04905 17.9484C7.09536 17.9196 7.15017 17.9075 7.20434 17.9141C7.41572 17.9385 7.62517 17.9505 7.82716 17.9505C8.81055 17.9505 9.74767 17.6861 10.5703 17.1809C10.0749 17.0613 9.61856 16.8162 9.2453 16.4692C8.87205 16.1222 8.59441 15.6849 8.43913 15.1995C8.42641 15.1596 8.42426 15.1171 8.43288 15.0762C8.4415 15.0353 8.46059 14.9973 8.4883 14.9659C8.516 14.9345 8.55146 14.9109 8.59114 14.8975C8.63081 14.8841 8.67331 14.8813 8.71438 14.8895C8.75969 14.8982 8.80525 14.9057 8.85056 14.9119C8.01347 14.3785 7.47043 13.4407 7.47043 12.4024V12.3679C7.47046 12.326 7.48142 12.2847 7.50225 12.2483C7.52309 12.2119 7.55306 12.1816 7.58921 12.1603C7.62536 12.139 7.66643 12.1276 7.70838 12.127C7.75032 12.1265 7.79168 12.1369 7.82836 12.1573C7.93321 12.2153 8.04191 12.2657 8.15351 12.3081C7.72518 11.7788 7.49184 11.1183 7.49261 10.4373C7.49261 9.91236 7.63168 9.3956 7.89464 8.9432C7.91421 8.90947 7.94167 8.881 7.97467 8.86022C8.00766 8.83944 8.0452 8.82698 8.08407 8.82389C8.12294 8.82081 8.16198 8.82721 8.19783 8.84253C8.23369 8.85785 8.26529 8.88165 8.28993 8.91187C9.57196 10.4838 11.4356 11.4727 13.4402 11.655C13.426 11.5355 13.4189 11.4154 13.419 11.2951C13.419 9.65687 14.7521 8.32401 16.3907 8.32401C17.1636 8.32401 17.9115 8.6289 18.4633 9.16446C19.0024 9.04443 19.5191 8.83949 19.994 8.55732C20.0059 8.52013 20.0266 8.48638 20.0544 8.45896C20.0821 8.43153 20.1161 8.41127 20.1535 8.3999C20.1908 8.38853 20.2304 8.3864 20.2687 8.39369C20.307 8.40098 20.343 8.41748 20.3736 8.44175C20.4042 8.46603 20.4284 8.49737 20.4442 8.53307C20.4599 8.56877 20.4668 8.60776 20.4642 8.6467C20.4615 8.68565 20.4495 8.72337 20.4291 8.75662C20.4086 8.78988 20.3804 8.81768 20.3469 8.83763C20.2289 9.20767 20.0388 9.55071 19.7877 9.84704C19.992 9.78535 20.1922 9.71096 20.3871 9.62433C20.4349 9.60324 20.4882 9.59823 20.5391 9.61004C20.5899 9.62186 20.6355 9.64986 20.6691 9.68984C20.7027 9.72982 20.7224 9.77961 20.7252 9.83174C20.728 9.88386 20.7139 9.9355 20.6848 9.97888Z" fill="white"/>
</svg>
