<svg width="51" height="51" viewBox="0 0 51 51" fill="none" xmlns="http://www.w3.org/2000/svg">
<g id="Group 148">
<path id="Vector" d="M39.5566 19.5307C37.9673 15.7162 35.0269 12.7759 31.2125 11.266C27.398 9.67662 23.2656 9.75609 19.4512 11.3455C15.6367 12.9348 12.6964 15.8751 11.1865 19.6896C9.59712 23.5041 9.67658 27.6364 11.2659 31.4509C13.7295 37.3315 19.4512 40.9076 25.4908 40.9076C27.4775 40.9076 29.4642 40.5103 31.3714 39.7156C35.1859 38.1262 38.1262 35.1859 39.6361 31.3714C41.146 27.557 41.146 23.3451 39.5566 19.5307ZM38.2057 30.7357C36.7752 34.1528 34.1528 36.8547 30.7357 38.2852C23.7425 41.2255 15.5572 37.8878 12.6169 30.8946C11.1865 27.4775 11.1865 23.7425 12.5374 20.3254C13.8884 16.9082 16.5903 14.2063 20.0074 12.7759C21.7557 12.0607 23.504 11.6633 25.3318 11.6633C27.0801 11.6633 28.9079 11.9812 30.5767 12.6964C33.9938 14.1268 36.6958 16.7493 38.1262 20.1664C39.5566 23.5836 39.6361 27.3186 38.2057 30.7357Z" fill="black"/>
<path id="Vector_2" d="M38.1258 20.1665C36.6954 16.7493 33.9935 14.1269 30.5764 12.6965C28.9075 11.9812 27.0798 11.6634 25.3315 11.6634C23.5037 11.6634 21.6759 12.0607 20.0071 12.7759C16.59 14.2063 13.9675 16.9083 12.5371 20.3254C11.1067 23.7425 11.1861 27.4775 12.6166 30.8947C15.5569 37.9673 23.6626 41.2255 30.7353 38.2852C34.1524 36.8548 36.7749 34.2323 38.2053 30.7357C39.6357 27.3186 39.5563 23.5836 38.1258 20.1665ZM23.9805 26.6829C23.9805 29.0669 22.0733 30.9741 19.6892 30.9741C17.3052 30.9741 15.3979 29.0669 15.3979 26.6829V20.7227C15.3979 20.3254 15.7158 19.9281 16.1926 19.9281C16.59 19.9281 16.9873 20.2459 16.9873 20.7227V26.6829C16.9873 28.1927 18.2588 29.4642 19.7687 29.4642C21.2786 29.4642 22.5501 28.1927 22.5501 26.6829V20.7227C22.5501 20.3254 22.8679 19.9281 23.3448 19.9281C23.7421 19.9281 24.1394 20.2459 24.1394 20.7227V26.6829H23.9805ZM35.3445 21.0406L31.9273 30.4973C31.8479 30.8152 31.53 30.9741 31.2121 30.9741H29.9406C29.6227 30.9741 29.3049 30.7357 29.2254 30.4179L26.0467 20.9611C25.8877 20.5638 26.1261 20.087 26.5235 20.0075C26.9208 19.8486 27.3182 20.087 27.4771 20.4843L30.4969 29.4642H30.7353L33.914 20.4843C34.073 20.087 34.4703 19.8486 34.8676 20.0075C35.3445 20.1665 35.5034 20.6433 35.3445 21.0406Z" fill="#F9AF48"/>
<path id="Vector_3" d="M38.1258 20.1665C36.6954 16.7493 33.9935 14.1269 30.5764 12.6965C28.9075 11.9812 27.0798 11.6634 25.3315 11.6634C23.5037 11.6634 21.6759 12.0607 20.0071 12.7759C16.59 14.2063 13.9675 16.9083 12.5371 20.3254C11.1067 23.7425 11.1861 27.4775 12.6166 30.8947C15.5569 37.9673 23.6626 41.2255 30.7353 38.2852C34.1524 36.8548 36.7749 34.2323 38.2053 30.7357C39.6357 27.3186 39.5563 23.5836 38.1258 20.1665ZM37.0928 30.2589C35.8213 33.3582 33.4372 35.8217 30.2585 37.0932C28.6691 37.7289 27.0798 38.0468 25.4109 38.0468C20.325 38.0468 15.7158 35.027 13.7291 30.2589C12.4576 27.1597 12.4576 23.7425 13.7291 20.5638C15.0006 17.4645 17.3846 15.001 20.5634 13.7295C22.1527 13.0938 23.8216 12.7759 25.4109 12.7759C27.0798 12.7759 28.6691 13.0938 30.179 13.7295C33.2783 15.001 35.7418 17.3851 37.0928 20.5638C38.3642 23.7425 38.3642 27.1597 37.0928 30.2589Z" fill="#ED9B3A"/>
<path id="Vector_4" d="M9.12028 32.325C8.96134 31.9276 8.48453 31.7687 8.08719 31.9276L0.537714 35.1064C0.140373 35.2653 -0.0185632 35.7421 0.140373 36.1395C0.299309 36.4573 0.537714 36.6163 0.855587 36.6163C0.935055 36.6163 1.09399 36.6163 1.17346 36.5368L8.72294 33.3581C9.12028 33.1197 9.27921 32.7223 9.12028 32.325ZM11.9017 38.0467L9.04081 40.987C8.72294 41.3049 8.72294 41.7817 9.04081 42.0996C9.19974 42.2585 9.35868 42.338 9.59709 42.338C9.75602 42.338 9.99443 42.2585 10.1534 42.0996L13.0142 39.1592C13.3321 38.8414 13.3321 38.3646 13.0142 38.0467C12.6963 37.7288 12.2195 37.7288 11.9017 38.0467ZM18.7359 41.8612C18.3386 41.7022 17.8618 41.8612 17.7028 42.2585L14.6036 49.8875C14.4446 50.2848 14.6036 50.7616 15.0009 50.9205C15.0804 50.9205 15.1599 51 15.3188 51C15.6367 51 15.8751 50.8411 16.034 50.5232L19.1333 42.8943C19.2922 42.4174 19.1333 42.0201 18.7359 41.8612ZM25.4907 43.1327C25.0934 43.1327 24.696 43.4505 24.696 43.9273V48.0597C24.696 48.457 25.0139 48.8544 25.4907 48.8544C25.8881 48.8544 26.2854 48.5365 26.2854 48.0597V43.9273C26.2854 43.4505 25.8881 43.1327 25.4907 43.1327ZM33.2786 42.179C33.1197 41.7817 32.6429 41.6228 32.2455 41.7817C31.8482 41.9406 31.6892 42.4174 31.8482 42.8148L35.0269 50.3643C35.1858 50.6821 35.4242 50.8411 35.7421 50.8411C35.8216 50.8411 35.9805 50.8411 36.06 50.7616C36.4573 50.6027 36.6163 50.1259 36.4573 49.7285L33.2786 42.179ZM39.0003 37.8878C38.6824 37.5699 38.2056 37.5699 37.8878 37.8878C37.5699 38.2056 37.5699 38.6824 37.8878 39.0003L40.8281 41.8612C40.987 42.0201 41.1459 42.0996 41.3844 42.0996C41.5433 42.0996 41.7817 42.0201 41.9406 41.8612C42.2585 41.5433 42.2585 41.0665 41.9406 40.7486L39.0003 37.8878ZM50.3643 34.868L42.7353 31.7687C42.338 31.6098 41.8612 31.7687 41.7022 32.166C41.5433 32.5634 41.7022 33.0402 42.0996 33.1991L49.7285 36.2984C49.808 36.2984 49.8874 36.3779 50.0464 36.3779C50.3643 36.3779 50.6027 36.2189 50.7616 35.9011C50.9205 35.5037 50.7616 35.0269 50.3643 34.868ZM47.9802 24.6166H43.8479C43.4505 24.6166 43.0532 24.9344 43.0532 25.4113C43.0532 25.8086 43.3711 26.2059 43.8479 26.2059H47.9802C48.3776 26.2059 48.7749 25.8881 48.7749 25.4113C48.6954 25.0139 48.3776 24.6166 47.9802 24.6166ZM41.7022 18.6565C41.8612 18.9743 42.0996 19.1333 42.4174 19.1333C42.4969 19.1333 42.6558 19.1333 42.7353 19.0538L50.2848 15.8751C50.6821 15.7161 50.8411 15.2393 50.6821 14.842C50.5232 14.4446 50.0464 14.2857 49.649 14.4446L42.0996 17.6234C41.7022 17.8618 41.5433 18.2591 41.7022 18.6565ZM38.3646 13.1732C38.5235 13.1732 38.7619 13.0937 38.9208 12.9347L41.7817 9.99443C42.0996 9.67655 42.0996 9.19975 41.7817 8.88187C41.4638 8.564 40.987 8.564 40.6691 8.88187L37.8083 11.8222C37.4904 12.1401 37.4904 12.6169 37.8083 12.9347C37.9672 13.0937 38.2056 13.1732 38.3646 13.1732ZM32.0866 9.12028C32.166 9.12028 32.2455 9.19975 32.4044 9.19975C32.7223 9.19975 32.9607 9.04081 33.1197 8.72294L36.2189 1.09399C36.3779 0.69665 36.2189 0.219841 35.8216 0.060905C35.4242 -0.0980314 34.9474 0.0609049 34.7885 0.458246L31.6892 8.08719C31.5303 8.564 31.6892 8.96134 32.0866 9.12028ZM25.3318 7.84879C25.7291 7.84879 26.1265 7.53091 26.1265 7.0541V2.92176C26.1265 2.52442 25.8086 2.12708 25.3318 2.12708C24.9344 2.12708 24.5371 2.44495 24.5371 2.92176V7.0541C24.5371 7.53091 24.9344 7.84879 25.3318 7.84879ZM17.5439 8.8024C17.7028 9.12028 17.9412 9.27921 18.2591 9.27921C18.3386 9.27921 18.4975 9.27921 18.577 9.19975C18.9743 9.04081 19.1333 8.564 18.9743 8.16666L15.7956 0.617182C15.6367 0.219841 15.1599 0.0609049 14.7625 0.219841C14.3652 0.378778 14.2062 0.855587 14.3652 1.25293L17.5439 8.8024ZM11.8222 13.0937C11.9811 13.2526 12.1401 13.3321 12.3785 13.3321C12.5374 13.3321 12.7758 13.2526 12.9347 13.0937C13.2526 12.7758 13.2526 12.299 12.9347 11.9811L9.99443 9.12028C9.67655 8.8024 9.19974 8.8024 8.88187 9.12028C8.564 9.43815 8.564 9.91496 8.88187 10.2328L11.8222 13.0937ZM0.458246 16.1135L8.08719 19.2127C8.16666 19.2127 8.24613 19.2922 8.40506 19.2922C8.72294 19.2922 8.96134 19.1333 9.12028 18.8154C9.27921 18.4181 9.12028 17.9412 8.72294 17.7823L1.09399 14.683C0.69665 14.5241 0.219841 14.683 0.0609049 15.0804C-0.0980314 15.4777 0.060905 15.9545 0.458246 16.1135ZM6.97464 24.7755H2.84229C2.44495 24.7755 2.04761 25.0934 2.04761 25.5702C2.04761 25.9675 2.36548 26.3649 2.84229 26.3649H6.97464C7.37198 26.3649 7.76932 26.047 7.76932 25.5702C7.76932 25.1728 7.37198 24.7755 6.97464 24.7755ZM23.9808 20.8021V26.7622C23.9808 29.1463 22.0736 31.0535 19.6895 31.0535C17.3055 31.0535 15.3983 29.1463 15.3983 26.7622V20.8021C15.3983 20.4048 15.7161 20.0074 16.1929 20.0074C16.5903 20.0074 16.9876 20.3253 16.9876 20.8021V26.7622C16.9876 28.2721 18.2591 29.5436 19.769 29.5436C21.2789 29.5436 22.5504 28.2721 22.5504 26.7622V20.8021C22.5504 20.4048 22.8683 20.0074 23.3451 20.0074C23.663 20.0074 23.9808 20.3253 23.9808 20.8021ZM35.3448 21.0405L31.9276 30.4972C31.8482 30.8151 31.5303 30.974 31.2124 30.974H29.9409C29.6231 30.974 29.3052 30.7356 29.2257 30.4177L26.047 20.961C25.8881 20.5637 26.1265 20.0869 26.5238 20.0074C26.9211 19.8485 27.3185 20.0869 27.4774 20.4842L30.4972 29.4641H30.7356L33.9143 20.4842C34.0733 20.0869 34.4706 19.8485 34.868 20.0074C35.3448 20.1664 35.5037 20.6432 35.3448 21.0405Z" fill="black"/>
</g>
</svg>
